Coordinates
version=1
nRows=38
nColumns=12
inDegrees=yes

Units are S.I. units (second, meters, Newtons, ...)
Angles are in degrees

endheader
time	SC_y	SC_z	SC_x	AC_y	AC_z	AC_x	GH_y	GH_z	GH_yy	EL_x	PS_y
       0.0              -39.26         -3.366           80.5          52.39         -11.75          6.245          120.1          67.47          38.33          59.46          146.6
   0.03384              -39.26          -3.36           80.5          52.39         -11.75          6.246          120.1          67.47          38.34          59.45          146.6
   0.06769              -39.26         -3.354          80.49          52.39         -11.74          6.247          120.1          67.46          38.36          59.45          146.6
    0.1015              -39.26         -3.348          80.49          52.39         -11.74          6.247          120.1          67.45          38.38          59.44          146.5
    0.1354              -39.26         -3.341          80.48          52.39         -11.74          6.249          120.1          67.44           38.4          59.43          146.5
    0.1692              -39.25         -3.334          80.47          52.38         -11.73           6.25          120.1          67.44          38.42          59.42          146.5
    0.2031              -39.25         -3.326          80.46          52.38         -11.73          6.251          120.1          67.43          38.44          59.41          146.5
    0.2369              -39.25         -3.318          80.46          52.38         -11.73          6.252          120.1          67.42          38.47           59.4          146.4
    0.2707              -39.25         -3.309          80.45          52.37         -11.72          6.253          120.1          67.41          38.49          59.39          146.4
    0.3046              -39.25           -3.3          80.44          52.37         -11.72          6.255          120.1           67.4          38.52          59.37          146.4
    0.3384              -39.25          -3.29          80.43          52.37         -11.71          6.256          120.1          67.39          38.55          59.36          146.3
    0.3723              -39.25         -3.279          80.42          52.36         -11.71          6.258          120.1          67.37          38.58          59.35          146.3
    0.4061              -39.25         -3.267          80.41          52.36          -11.7           6.26          120.1          67.36          38.62          59.33          146.3
      0.44              -39.25         -3.254           80.4          52.35          -11.7          6.262          120.1          67.35          38.65          59.31          146.2
    0.4738              -39.25         -3.241          80.38          52.35         -11.69          6.264          120.1          67.33           38.7           59.3          146.2
    0.5077              -39.25         -3.226          80.37          52.34         -11.68          6.266          120.1          67.32          38.74          59.28          146.1
    0.5415              -39.25         -3.209          80.35          52.34         -11.67          6.268          120.1           67.3          38.79          59.25          146.1
    0.5753              -39.25         -3.192          80.34          52.33         -11.66          6.271          120.1          67.28          38.84          59.23          146.0
    0.6092              -39.25         -3.173          80.32          52.33         -11.66          6.274          120.0          67.26           38.9          59.21          145.9
     0.643              -39.25         -3.152           80.3          52.32         -11.64          6.277          120.0          67.23          38.96          59.18          145.9
    0.6769              -39.25         -3.128          80.27          52.31         -11.63           6.28          120.0          67.21          39.03          59.15          145.8
    0.7107              -39.25         -3.103          80.25           52.3         -11.62          6.284          120.0          67.18           39.1          59.11          145.7
    0.7446              -39.25         -3.075          80.22          52.29         -11.61          6.288          120.0          67.15          39.18          59.08          145.6
    0.7784              -39.24         -3.044          80.19          52.28         -11.59          6.293          120.0          67.11          39.28          59.03          145.5
    0.8122              -39.24         -3.009          80.16          52.27         -11.57          6.298          120.0          67.07          39.38          58.99          145.4
    0.8461              -39.24          -2.97          80.12          52.25         -11.56          6.304          120.0          67.03          39.49          58.94          145.2
    0.8799              -39.24         -2.927          80.08          52.24         -11.53          6.311          120.0          66.98          39.62          58.88          145.1
    0.9138              -39.24         -2.878          80.04          52.22         -11.51          6.318          120.0          66.93          39.77          58.81          144.9
    0.9476              -39.24         -2.823          79.98           52.2         -11.48          6.326          120.0          66.87          39.93          58.74          144.7
    0.9815              -39.23         -2.761          79.92          52.18         -11.45          6.336          120.0           66.8          40.11          58.66          144.5
     1.015              -39.23         -2.689          79.85          52.15         -11.42          6.346          120.0          66.72          40.32          58.56          144.3
     1.049              -39.23         -2.608          79.78          52.13         -11.38          6.358          120.0          66.63          40.57          58.46          144.0
     1.083              -39.23         -2.513          79.69          52.09         -11.33          6.373          120.0          66.52          40.85          58.33          143.6
     1.117              -39.22         -2.403          79.58          52.05         -11.27          6.389          120.0           66.4          41.17          58.18          143.3
     1.151              -39.22         -2.275          79.46          52.01         -11.21          6.408          119.9          66.25          41.55          58.01          142.8
     1.185              -39.21         -2.123          79.31          51.95         -11.14          6.431          119.9          66.09           42.0          57.81          142.3
     1.218               -39.2         -1.943          79.14          51.89         -11.05          6.458          119.9          65.88          42.53          57.57          141.7
     1.252               -39.2         -1.727          78.93          51.81         -10.94           6.49          119.9          65.64          43.17          57.29          140.9
